<?xml version="1.0" encoding="UTF-8"?>
<svg id="Layer_1" data-name="Layer 1" xmlns="http://www.w3.org/2000/svg" viewBox="0 0 62.25 74.91">
  <defs>
    <style>
      .cls-1 {
        fill: #c0bfc0;
      }

      .cls-2 {
        fill: #fff;
      }

      .cls-3 {
        fill: #e2e3e2;
      }
    </style>
  </defs>
  <path class="cls-2" d="m23.37,74.91c-2.9.06-5.72-.29-8.39-1.4-4.58-1.9-8.48-4.7-11.18-8.95-1.29-2.03-2.38-4.17-3.07-6.5C-.02,55.55-.05,53,.03,50.42c.05-1.72.51-3.35,1.02-4.93.79-2.43,1.98-4.71,3.11-7.01,2.08-4.24,4.92-7.91,7.94-11.49,3.21-3.81,6.76-7.29,10.16-10.91.39-.42.7-.48,1.13-.05,6.13,6.02,12.19,12.09,16.49,19.63,1.96,3.43,3.76,6.94,4.92,10.74.77,2.51,1.24,5.07.9,7.68-.76,5.96-3.19,11.1-7.84,15.04-1.28,1.09-2.64,2.1-4.05,3.01-.87.56-1.88.92-2.86,1.29-.82.31-1.66.59-2.52.74-1.69.3-3.39.51-5.08.76Z"/>
  <path class="cls-2" d="m45.52,30.88c.06-2.66-.99-4.98-2.35-7.15-2.75-4.38-6.76-6.99-11.82-7.97-.36-.07-.74-.04-1.12-.05-.02-.03-.06-.07-.06-.09.01-.06.05-.12.07-.18.93-.25,1.84-.53,2.78-.74,1.95-.44,3.69-1.36,5.3-2.5,3.15-2.23,5.29-5.25,6.64-8.84.39-1.05.6-2.17.92-3.37.54,3.01,1.49,5.72,3.29,8.13,2.18,2.91,4.87,5.09,8.26,6.37,1.14.43,2.36.65,3.55.96-.02.06-.03.13,0,.19-1.52.4-3.1.63-4.54,1.23-2.54,1.05-4.64,2.78-6.39,4.89-1.37,1.64-2.57,3.41-3.21,5.47-.37,1.2-.58,2.45-.86,3.68-.15-.01-.3-.03-.45-.04Z"/>
  <path class="cls-3" d="m60.97,15.66c-.02-.06-.02-.13,0-.19.45-.47.82-.24,1.28.13-.49.46-.88.46-1.28.06Z"/>
  <path class="cls-1" d="m45.52,30.88c.15.01.3.03.45.04-.08.5-.17,1-.25,1.5-.06,0-.13-.01-.19-.03,0-.51,0-1.01,0-1.52Z"/>
  <path class="cls-1" d="m30.24,15.44c-.02.06-.06.12-.07.18,0,.03.04.06.06.09-.31.28-.61.27-1.1-.21.49-.03.8-.05,1.11-.06Z"/>
  <path class="cls-3" d="m45.53,32.4c.06.01.13.02.19.03-.03.1-.05.2-.08.31-.04-.11-.07-.22-.11-.33Z"/>
</svg>