<?xml version="1.0" encoding="UTF-8"?>
<svg id="Layer_1" data-name="Layer 1" xmlns="http://www.w3.org/2000/svg" viewBox="0 0 118.01 54.07">
  <defs>
    <style>
      .cls-1 {
        fill: #2a2c2c;
      }

      .cls-2 {
        fill: #fff;
      }

      .cls-3 {
        fill: #e2e3e2;
      }
    </style>
  </defs>
  <path class="cls-2" d="m0,54.07V2.89h118.01v51.18H0ZM104.02,7.45c-.2.38-.42.78-.62,1.18-3.2,6.57-6.37,13.15-9.59,19.71-3.07,6.28-6.19,12.53-9.27,18.81-.21.42-.61.81-.39,1.42,2.88,0,5.75-.02,8.62.01.58,0,.8-.29,1.01-.73.85-1.79,1.76-3.55,2.57-5.36.3-.66.62-.96,1.38-.94,2.71.05,5.42.01,8.12.02.23,0,.46.07.77.12v6.8h8.77V7.45h-11.4ZM15.25,34.39c2.38,0,4.58,0,6.79,0,.62,0,1.28.08,1.87-.07,3.89-.96,7.24-2.8,9.67-6.11,1.63-2.22,2.42-4.73,2.84-7.39.45-2.88.17-5.71-.89-8.42-.62-1.59-1.73-2.84-3.28-3.63-2-1.03-4.16-1.35-6.37-1.37-3.75-.04-7.5-.01-11.25,0-.32,0-.64.04-1,.07-3.8,13.7-7.58,27.34-11.38,41.05h9.04c1.32-4.71,2.62-9.37,3.95-14.12Zm51.46-18.72h8.31c-3.07,11.01-6.09,21.88-9.15,32.83h9.89c3.06-10.97,6.11-21.87,9.18-32.88h8.52c.75-2.79,1.47-5.46,2.2-8.19h-26.6c-.76,2.68-1.53,5.34-2.35,8.24Zm-8.3,21.47c-.81-.08-.98.47-1.3.82-1.12,1.23-2.18,2.52-3.38,3.66-1.5,1.42-3.35,2.25-5.36,2.66-2.56.52-4.55-.36-5.97-2.56-.66-1.02-1.16-2.11-1.25-3.32-.13-1.82-.34-3.66-.21-5.48.1-1.49.61-2.96,1.02-4.41.09-.31.4-.68.93-.68.57,0,1.15-.13,1.71-.25,4.46-.95,8.84-2.16,12.93-4.25,1.79-.92,3.46-2.03,4.8-3.54,2.22-2.5,3.26-5.33,2.06-8.66-.54-1.5-1.56-2.62-3-3.17-2.85-1.08-5.74-.95-8.61.1-3.7,1.35-6.63,3.74-9.24,6.62-2.34,2.59-4.1,5.57-5.59,8.67-1.01,2.1-1.81,4.33-2.45,6.61-.79,2.82-1.45,5.63-1.39,8.58.04,2.11.46,4.12,1.47,5.94,2.38,4.28,6.04,6.59,11.34,4.61,1.23-.46,2.43-1.08,3.51-1.82,3.32-2.29,5.73-5.41,7.72-8.88.2-.35.19-.81.28-1.25Z"/>
  <path class="cls-3" d="m69.71.45c-.02-.06-.02-.13,0-.19.45-.47.82-.24,1.28.13-.49.46-.88.46-1.28.06Z"/>
  <path class="cls-2" d="m106.57,22.85v10.76c-.95.31-1.9.12-2.84.15-.91.03-1.83,0-2.96,0,.82-1.99,1.81-3.79,2.68-5.64.89-1.88,1.83-3.73,2.75-5.59.12.1.25.2.37.3Z"/>
  <path class="cls-1" d="m106.57,22.85c-.12-.1-.25-.2-.37-.3.08-.17.16-.35.23-.52.05.01.09.02.14.04v.78Z"/>
  <path class="cls-2" d="m20.48,15.6c1.56.08,2.98.07,4.37.24,1.67.22,2.26.98,2.31,2.67.07,2.15-.44,4.09-2,5.67-1.08,1.09-2.41,1.61-3.89,1.93-1.19.26-2.37.26-3.76.26,1-3.61,1.96-7.11,2.97-10.78Z"/>
  <path class="cls-2" d="m43.13,25.84c0-.22-.03-.44.03-.61,1.52-3.93,3.05-7.86,5.43-11.39,1.23-1.82,2.76-3.3,4.56-4.55,2.1-1.45,4.8-.33,5.28,2.07.31,1.54.18,3-.21,4.51-1.06,4.1-3.91,6.51-7.57,8.15-2.26,1.01-4.61,1.79-7.12,1.88-.11,0-.23-.03-.41-.05Z"/>
</svg>