<?xml version="1.0" encoding="UTF-8"?>
<svg id="Layer_1" data-name="Layer 1" xmlns="http://www.w3.org/2000/svg" viewBox="0 0 56.29 49.66">
  <defs>
    <style>
      .cls-1 {
        fill: #fff;
      }
    </style>
  </defs>
  <path class="cls-1" d="m9.55,29.78c-.08-1.62-.18-3.12.03-4.58.19-1.36.59-2.72,1.06-4.02.37-1.01.96-1.94,1.5-2.88,1.51-2.63,3.59-4.67,6.2-6.25,3.2-1.92,6.64-2.79,10.34-2.78,1.87,0,3.75.02,5.62.02,3.22.02,6.33-.56,9.23-2,.99-.49,1.82-1.28,2.78-1.84,1.83-1.1,2.95-2.81,4.04-4.55.79-1.25,2.66-1.24,3.1.22.6,1.98,1.32,3.93,1.81,5.93.42,1.7.63,3.46.86,5.2.31,2.44.22,4.87-.31,7.29-.33,1.51-.4,3.09-.8,4.58-1.29,4.83-3.41,9.24-6.73,13.07-2.14,2.47-4.65,4.41-7.44,6.08-2.44,1.47-5.14,2.1-7.85,2.74-2.44.58-4.93.64-7.4.48-1.52-.1-3.01-.53-4.4-1.19-1.86-.89-3.73-1.75-5.23-3.23-.73-.72-1.47-1.45-2.17-2.2-.79-.86-.83-.86-1.67-.09-2.52,2.31-4.57,4.97-6.13,8.03-1.09,2.15-2.93,2.1-4.53,1.38-.99-.44-1.84-2.18-1.32-3.36.6-1.36,1.23-2.73,2.03-3.97.87-1.34,1.92-2.56,2.95-3.79,1.61-1.93,3.46-3.6,5.55-5.01,1.54-1.04,2.98-2.27,4.63-3.12,2.29-1.18,4.68-2.24,7.11-3.07,1.93-.66,4.01-.9,6.02-1.34,2.92-.64,5.89-.72,8.87-.79.95-.02,1.71-.69,1.72-1.43.02-.94-.8-1.75-1.83-1.71-2.12.09-4.26.09-6.35.4-2.47.36-4.95.67-7.37,1.38-1.46.43-2.91.85-4.33,1.39-3.35,1.25-6.54,2.8-9.6,4.99Z"/>
</svg>